HIERARCHY
ROOT joint_Root
{
	OFFSET 0.0 0.0 0.0
	CHANNELS 6 Xposition Yposition Zposition Zrotation Xrotation Yrotation 
	JOINT Hips
	{
		OFFSET -17.1583 93.1646 452.98
		CHANNELS 6 Xposition Yposition Zposition Zrotation Xrotation Yrotation 
		JOINT Spine
		{
			OFFSET 15.7357 0.0 0.0
			CHANNELS 6 Xposition Yposition Zposition Zrotation Xrotation Yrotation 
			JOINT Chest
			{
				OFFSET 8.98455 -0.406207 0.0
				CHANNELS 6 Xposition Yposition Zposition Zrotation Xrotation Yrotation 
				JOINT Neck
				{
					OFFSET 16.3773 0.0 0.0
					CHANNELS 6 Xposition Yposition Zposition Zrotation Xrotation Yrotation 
					JOINT Head
					{
						OFFSET 6.45672 0.0 0.0
						CHANNELS 6 Xposition Yposition Zposition Zrotation Xrotation Yrotation 
						End Site
						{
							OFFSET 0.0 0.0 0.0
						}
					}
				}
				JOINT Shoulder_L
				{
					OFFSET 12.9942 -0.242716 4.98039
					CHANNELS 6 Xposition Yposition Zposition Zrotation Xrotation Yrotation 
					JOINT UpperArm_L
					{
						OFFSET 5.34809 0.0 0.0
						CHANNELS 6 Xposition Yposition Zposition Zrotation Xrotation Yrotation 
						JOINT LowerArm_L
						{
							OFFSET 24.3286 1.87007e-05 0.0
							CHANNELS 6 Xposition Yposition Zposition Zrotation Xrotation Yrotation 
							JOINT Hand_L
							{
								OFFSET 22.2916 0.0 0.0
								CHANNELS 6 Xposition Yposition Zposition Zrotation Xrotation Yrotation 
								End Site
								{
									OFFSET 0.0 0.0 0.0
								}
							}
						}
					}
				}
				JOINT Shoulder_R
				{
					OFFSET 12.9945 -0.242716 -4.98039
					CHANNELS 6 Xposition Yposition Zposition Zrotation Xrotation Yrotation 
					JOINT UpperArm_R
					{
						OFFSET -5.34813 0.0 0.0
						CHANNELS 6 Xposition Yposition Zposition Zrotation Xrotation Yrotation 
						JOINT LowerArm_R
						{
							OFFSET -24.3289 0.000322201 0.0
							CHANNELS 6 Xposition Yposition Zposition Zrotation Xrotation Yrotation 
							JOINT Hand_R
							{
								OFFSET -22.2915 -0.000108084 0.0
								CHANNELS 6 Xposition Yposition Zposition Zrotation Xrotation Yrotation 
								End Site
								{
									OFFSET 0.0 0.0 0.0
								}
							}
						}
					}
				}
			}
		}
		JOINT UpperLeg_L
		{
			OFFSET -2.19248 -6.46944 0.0
			CHANNELS 6 Xposition Yposition Zposition Zrotation Xrotation Yrotation 
			JOINT LowerLeg_L
			{
				OFFSET 39.0811 0.0 -1.23785e-05
				CHANNELS 6 Xposition Yposition Zposition Zrotation Xrotation Yrotation 
				JOINT Foot_L
				{
					OFFSET 40.9854 0.0 -1.26872e-05
					CHANNELS 6 Xposition Yposition Zposition Zrotation Xrotation Yrotation 
					JOINT Toes_L
					{
						OFFSET 11.7543 0.0 0.0
						CHANNELS 6 Xposition Yposition Zposition Zrotation Xrotation Yrotation 
						End Site
						{
							OFFSET 0.0 0.0 0.0
						}
					}
				}
			}
		}
		JOINT UpperLeg_R
		{
			OFFSET -2.19251 6.46944 0.0
			CHANNELS 6 Xposition Yposition Zposition Zrotation Xrotation Yrotation 
			JOINT LowerLeg_R
			{
				OFFSET -39.0811 -0.00228153 -0.0401928
				CHANNELS 6 Xposition Yposition Zposition Zrotation Xrotation Yrotation 
				JOINT Foot_R
				{
					OFFSET -40.9854 0.0 0.0
					CHANNELS 6 Xposition Yposition Zposition Zrotation Xrotation Yrotation 
					JOINT Toes_R
					{
						OFFSET -11.7543 0.0 0.0
						CHANNELS 6 Xposition Yposition Zposition Zrotation Xrotation Yrotation 
						End Site
						{
							OFFSET 0.0 0.0 0.0
						}
					}
				}
			}
		}
	}
}
MOTION
Frames:	5
Frame Time:	0.0333333
0.000000 0.000000 0.000000 0.000000 0.000000 -0.000000 0.630449 93.046600 -1.111350 87.084900 -1.579120 2.165580 15.735700 0.000005 -0.000001 70.329700 86.942000 -68.200300 8.984550 -0.406207 -0.000000 -1.962320 -2.238820 4.220090 16.377300 -0.000001 -0.000001 4.142020 2.044160 -1.910280 6.456720 -0.000001 -0.000000 1.120790 1.871550 -2.535380 12.994200 -0.242716 4.980390 -92.369100 7.113770 -71.526600 5.348090 -0.000007 -0.000001 -76.166700 16.345800 2.699540 24.328600 0.000019 0.000005 13.852600 27.004500 -28.506000 22.291600 -0.000001 0.000005 -1.595780 5.045130 6.344390 12.994500 -0.242716 -4.980390 88.517200 4.549610 -71.927400 -5.348130 -0.000001 -0.000004 -69.083800 14.061800 -3.583200 -24.328900 0.000322 -0.000009 2.331860 5.605910 -22.637700 -22.291500 -0.000108 -0.000004 5.657390 5.257800 1.226320 -2.192480 -6.469440 -0.000000 -177.180000 -0.408574 -1.338590 39.081100 -0.000007 -0.000012 0.177226 -0.516712 18.931700 40.985400 -0.000006 -0.000013 3.476010 10.049600 -71.049600 11.754300 -0.000000 0.000003 0.000172 0.164682 -9.897540 -2.192510 6.469440 -0.000001 -176.374000 5.652380 -178.022000 -39.081100 -0.002282 -0.040193 0.034416 -0.135714 12.899600 -40.985400 0.000008 0.000006 -0.707770 4.053550 -68.204800 -11.754300 -0.000006 -0.000006 -0.009873 0.270353 -5.589930
0.000000 0.000000 0.000000 0.000000 0.000000 -0.000000 0.590734 93.061100 -1.119950 87.077900 -1.521010 2.037460 15.735700 0.000005 -0.000001 70.298400 86.911800 -68.148300 8.984550 -0.406207 -0.000000 -1.905650 -2.263030 4.262220 16.377300 -0.000001 -0.000001 3.913700 1.964550 -1.714420 6.456720 -0.000001 -0.000000 0.534137 1.914250 -2.398990 12.994200 -0.242716 4.980390 -92.424200 7.229420 -71.406400 5.348090 -0.000007 -0.000001 -75.816500 13.840700 2.684910 24.328600 0.000019 0.000005 14.287700 26.740200 -29.509800 22.291600 -0.000001 0.000005 -1.139710 5.029420 6.687030 12.994500 -0.242716 -4.980390 88.495200 4.588400 -71.821000 -5.348130 -0.000001 -0.000004 -68.518500 11.849200 -3.498950 -24.328900 0.000322 -0.000009 2.606060 5.560990 -25.168300 -22.291500 -0.000108 -0.000004 5.439840 5.238670 1.730190 -2.192480 -6.469440 -0.000000 -177.151000 -0.421085 -1.435880 39.081100 -0.000007 -0.000012 0.176172 -0.516268 18.842000 40.985400 -0.000006 -0.000013 3.445820 10.066800 -71.026300 11.754300 -0.000000 0.000003 0.000216 0.163907 -9.929030 -2.192510 6.469440 -0.000001 -176.338000 5.631120 -178.103000 -39.081100 -0.002282 -0.040193 0.032031 -0.126556 12.775900 -40.985400 0.000008 0.000006 -0.853690 3.995240 -68.111500 -11.754300 -0.000006 -0.000006 -0.009726 0.269245 -5.635210
0.000000 0.000000 0.000000 0.000000 0.000000 -0.000000 0.551857 93.068400 -1.134490 87.098600 -1.435270 1.867120 15.735700 0.000005 -0.000001 70.319200 86.902700 -68.160900 8.984550 -0.406207 -0.000000 -1.887480 -2.267400 4.279030 16.377300 -0.000001 -0.000001 3.699200 1.895240 -1.504770 6.456720 -0.000001 -0.000000 -0.093688 1.916540 -2.186340 12.994200 -0.242716 4.980390 -92.452600 7.288760 -71.344900 5.348090 -0.000007 -0.000001 -75.403400 11.007000 2.865580 24.328600 0.000019 0.000005 14.599300 25.516400 -31.159900 22.291600 -0.000001 0.000005 -0.003114 5.010280 7.098500 12.994500 -0.242716 -4.980390 88.484600 4.573490 -71.645100 -5.348130 -0.000001 -0.000004 -68.040600 9.460380 -3.328670 -24.328900 0.000322 -0.000009 2.857950 5.345910 -28.191900 -22.291500 -0.000108 -0.000004 6.234290 5.241560 1.656330 -2.192480 -6.469440 -0.000000 -177.139000 -0.342529 -1.608860 39.081100 -0.000007 -0.000012 0.175580 -0.515698 18.802500 40.985400 -0.000006 -0.000013 3.397890 10.058000 -71.033400 11.754300 -0.000000 0.000003 0.000032 0.167087 -9.799900 -2.192510 6.469440 -0.000001 -176.294000 5.611100 -178.237000 -39.081100 -0.002282 -0.040193 0.032080 -0.127775 12.678700 -40.985400 0.000008 0.000006 -0.765229 3.883230 -68.066100 -11.754300 -0.000006 -0.000006 -0.009772 0.269592 -5.621030
0.000000 0.000000 0.000000 0.000000 0.000000 -0.000000 0.491115 93.073800 -1.152080 87.076500 -1.372580 1.754260 15.735700 0.000005 -0.000001 70.260700 86.879600 -68.063200 8.984550 -0.406207 -0.000000 -1.844610 -2.291480 4.357740 16.377300 -0.000001 -0.000001 3.528000 1.875190 -1.264580 6.456720 -0.000001 -0.000000 -0.719604 2.007870 -2.048960 12.994200 -0.242716 4.980390 -92.487000 7.349850 -71.247000 5.348090 -0.000007 -0.000001 -74.920000 7.977170 3.311820 24.328600 0.000019 0.000005 15.377100 24.087600 -33.974200 22.291600 -0.000001 0.000005 1.806790 4.985900 7.614790 12.994500 -0.242716 -4.980390 88.498500 4.506270 -71.550300 -5.348130 -0.000001 -0.000004 -67.585600 7.311550 -3.081440 -24.328900 0.000322 -0.000009 3.474660 5.621980 -31.796200 -22.291500 -0.000108 -0.000004 8.422070 5.272210 0.846678 -2.192480 -6.469440 -0.000000 -177.072000 -0.265008 -1.745080 39.081100 -0.000007 -0.000012 0.175099 -0.514272 18.803000 40.985400 -0.000006 -0.000013 3.360700 10.114300 -71.012000 11.754300 -0.000000 0.000003 0.000205 0.164096 -9.921330 -2.192510 6.469440 -0.000001 -176.216000 5.542610 -178.340000 -39.081100 -0.002282 -0.040193 0.031129 -0.124071 12.627200 -40.985400 0.000008 0.000006 -0.875847 3.774010 -68.007800 -11.754300 -0.000006 -0.000006 -0.009499 0.267519 -5.705810
0.000000 0.000000 0.000000 0.000000 0.000000 -0.000000 0.426004 93.072100 -1.174890 87.051600 -1.297010 1.612470 15.735700 0.000005 -0.000001 70.495300 86.873600 -68.250600 8.984550 -0.406207 -0.000000 -1.824050 -2.274930 4.452680 16.377300 -0.000001 -0.000001 3.337220 1.889470 -0.979989 6.456720 -0.000001 -0.000000 -1.286560 2.150580 -1.907240 12.994200 -0.242716 4.980390 -92.502600 7.372490 -71.191000 5.348090 -0.000007 -0.000001 -74.435800 5.081240 3.971970 24.328600 0.000019 0.000005 17.129400 23.005200 -38.259000 22.291600 -0.000001 0.000005 4.164610 4.943980 8.483730 12.994500 -0.242716 -4.980390 88.516400 4.424320 -71.441600 -5.348130 -0.000001 -0.000004 -67.133100 5.221150 -2.668470 -24.328900 0.000322 -0.000009 4.262210 5.833510 -36.257000 -22.291500 -0.000108 -0.000004 11.588300 5.306770 -0.111551 -2.192480 -6.469440 -0.000000 -177.019000 -0.163645 -1.950560 39.081100 -0.000007 -0.000012 0.178785 -0.522727 18.882200 40.985400 -0.000006 -0.000013 3.306860 10.041600 -71.058700 11.754300 -0.000000 0.000003 0.000138 0.165276 -9.873430 -2.192510 6.469440 -0.000001 -176.112000 5.542220 -178.497000 -39.081100 -0.002282 -0.040193 0.032246 -0.129143 12.619000 -40.985400 0.000008 0.000006 -0.802536 3.682920 -68.032900 -11.754300 -0.000006 -0.000006 -0.009855 0.270220 -5.595360
